<svg id="eWDVvMICpyK1" xmlns="http://www.w3.org/2000/svg" xmlns:xlink="http://www.w3.org/1999/xlink" viewBox="0 0 2200 1350" shape-rendering="geometricPrecision" text-rendering="geometricPrecision"><style><![CDATA[#eWDVvMICpyK116_tr {animation: eWDVvMICpyK116_tr__tr 5000ms linear infinite normal forwards}@keyframes eWDVvMICpyK116_tr__tr { 0% {transform: translate(980.745103px,560.582294px) rotate(0deg)} 40% {transform: translate(980.745103px,560.582294px) rotate(11.728294deg)} 80% {transform: translate(980.745103px,560.582294px) rotate(-7.496366deg)} 100% {transform: translate(980.745103px,560.582294px) rotate(0deg)}} #eWDVvMICpyK148_tr {animation: eWDVvMICpyK148_tr__tr 5000ms linear infinite normal forwards}@keyframes eWDVvMICpyK148_tr__tr { 0% {transform: translate(1570.479071px,247.306976px) rotate(0deg)} 40% {transform: translate(1570.479071px,247.306976px) rotate(-13.221669deg)} 80% {transform: translate(1570.479071px,247.306976px) rotate(7.32419deg)} 100% {transform: translate(1570.479071px,247.306976px) rotate(0deg)}} #eWDVvMICpyK173_tr {animation: eWDVvMICpyK173_tr__tr 5000ms linear infinite normal forwards}@keyframes eWDVvMICpyK173_tr__tr { 0% {transform: translate(1645.409039px,436.300212px) rotate(0deg)} 20% {transform: translate(1645.409039px,436.300212px) rotate(9.494524deg)} 40% {transform: translate(1645.409039px,436.300212px) rotate(-0.672322deg)} 60% {transform: translate(1645.409039px,436.300212px) rotate(-12.494527deg)} 80% {transform: translate(1645.409039px,436.300212px) rotate(10.124865deg)} 100% {transform: translate(1645.409039px,436.300212px) rotate(0deg)}}]]></style><line x1="-124.52154" y1="-23.434747" x2="124.52154" y2="23.434746" transform="translate(1105.266643 584.017041)" fill="none" stroke="#fff" stroke-width="5"/><line x1="58.151105" y1="82.638411" x2="-58.151105" y2="-82.638411" transform="translate(922.593998 477.943884)" fill="none" stroke="#fff" stroke-width="5"/><g id="eWDVvMICpyK116_tr" transform="translate(980.745103,560.582294) rotate(0)"><g transform="translate(-830.491337,-491.285677)"><line x1="65.165484" y1="-68.081765" x2="-65.165484" y2="68.081765" transform="translate(284.218441 835.87353)" fill="none" stroke="#fff" stroke-width="5"/><line x1="91.941506" y1="-66.319369" x2="-91.941506" y2="66.319369" transform="translate(108.628645 1089.67527)" fill="none" stroke="#fff" stroke-width="2"/><line x1="61.314509" y1="-72.694219" x2="-61.314509" y2="72.694219" transform="translate(78.001647 1083.300419)" fill="none" stroke="#fff" stroke-width="2"/><line x1="30.626998" y1="6.37485" x2="-30.626997" y2="-6.37485" transform="translate(169.943153 1016.98105)" fill="none" stroke="#fff" stroke-width="2"/><line x1="39.27858" y1="-32.012834" x2="-39.27858" y2="32.012834" transform="translate(239.848731 991.343066)" fill="none" stroke="#fff" stroke-width="5"/><line x1="69.905577" y1="-25.637984" x2="-69.905577" y2="25.637984" transform="translate(209.221732 984.968216)" fill="none" stroke="#fff" stroke-width="5"/><line x1="45.930598" y1="0" x2="-45.930598" y2="0" transform="translate(233.196713 959.330232)" fill="none" stroke="#fff" stroke-width="5"/><line x1="30.037177" y1="27.452514" x2="-30.037177" y2="-27.452514" transform="translate(249.090134 931.877718)" fill="none" stroke="#fff" stroke-width="5"/><line x1="81.813568" y1="-27.452514" x2="-81.813568" y2="27.452514" transform="translate(360.940878 931.877718)" fill="none" stroke="#fff" stroke-width="2"/><line x1="-46.685262" y1="-68.316719" x2="46.685262" y2="68.316719" transform="translate(396.069185 836.108484)" fill="none" stroke="#fff" stroke-width="5"/><line x1="35.128308" y1="-95.769233" x2="-35.128307" y2="95.769233" transform="translate(314.255617 863.560998)" fill="none" stroke="#fff" stroke-width="8"/><line x1="122.155671" y1="23.329508" x2="-122.155671" y2="-23.329508" transform="translate(471.539595 791.121273)" fill="none" stroke="#fff" stroke-width="5"/><line x1="107.357042" y1="-75.315411" x2="-107.357042" y2="75.315411" transform="translate(701.052308 739.13537)" fill="none" stroke="#fff" stroke-width="5"/><line x1="67.872145" y1="-80.250841" x2="-67.872144" y2="80.250841" transform="translate(417.256068 687.540924)" fill="none" stroke="#fff" stroke-width="2"/><line x1="229.512713" y1="-51.985903" x2="-229.512713" y2="51.985903" transform="translate(578.896636 715.805862)" fill="none" stroke="#fff" stroke-width="8"/><line x1="161.640568" y1="28.223801" x2="-161.640568" y2="-28.223801" transform="translate(646.76878 635.596157)" fill="none" stroke="#fff" stroke-width="5"/><line x1="67.363573" y1="-76.02683" x2="-67.363573" y2="76.02683" transform="translate(552.491785 531.263253)" fill="none" stroke="#fff" stroke-width="2"/><line x1="11.040996" y1="-85.999287" x2="-11.040995" y2="85.999288" transform="translate(819.450343 577.82067)" fill="none" stroke="#fff" stroke-width="8"/><line x1="-105.31799" y1="-18.024628" x2="105.31799" y2="18.024627" transform="translate(725.173349 473.261051)" fill="none" stroke="#fff" stroke-width="5"/><ellipse rx="31.065934" ry="31.065934" transform="matrix(.40237 0 0 0.40237 808.409348 663.819957)" fill="#01b0d3" stroke-width="0"/><ellipse rx="31.607963" ry="31.607963" transform="translate(349.383923 767.791765)" fill="#01b0d3" stroke-width="0"/><ellipse rx="31.065934" ry="31.065934" transform="matrix(.40237 0 0 0.40237 619.855358 455.236423)" fill="#01b0d3" stroke-width="0"/><ellipse rx="31.065934" ry="31.065934" transform="matrix(.40237 0 0 0.40237 219.052957 903.955295)" fill="#01b0d3" stroke-width="0"/><ellipse rx="31.065934" ry="31.065934" transform="matrix(.40237 0 0 0.40237 279.127309 958.904718)" fill="#01b0d3" stroke-width="0"/><ellipse rx="31.065934" ry="31.065934" transform="matrix(.40237 0 0 0.40237 593.695266 814.450781)" fill="#01b0d3" stroke-width="0"/><ellipse rx="14.911648" ry="14.911648" transform="matrix(.40237 0 0 0.40237 485.128213 607.290083)" fill="#01b0d3" stroke-width="0"/><ellipse rx="14.911648" ry="14.911648" transform="matrix(.40237 0 0 0.40237 442.754447 904.425204)" fill="#01b0d3" stroke-width="0"/><ellipse rx="14.911648" ry="14.911648" transform="matrix(.40237 0 0 0.40237 187.266116 959.330232)" fill="#01b0d3" stroke-width="0"/><ellipse rx="14.911648" ry="14.911648" transform="matrix(.40237 0 0 0.40237 200.570151 1023.355901)" fill="#01b0d3" stroke-width="0"/><ellipse rx="14.911648" ry="14.911648" transform="matrix(.40237 0 0 0.40237 139.316156 1010.6062)" fill="#01b0d3" stroke-width="0"/><ellipse rx="14.911648" ry="14.911648" transform="matrix(.40237 0 0 0.40237 16.687139 1155.994639)" fill="#01b0d3" stroke-width="0"/></g></g><g id="eWDVvMICpyK148_tr" transform="translate(1570.479071,247.306976) rotate(0)"><g transform="translate(-1420.225307,-178.010359)"><line x1="-53.744529" y1="-17.441085" x2="53.744529" y2="17.441086" transform="translate(1768.259492 56.064319)" fill="none" stroke="#fff" stroke-width="2"/><line x1="11.910018" y1="73.05412" x2="-11.910018" y2="-73.05412" transform="translate(1726.424981 111.677353)" fill="none" stroke="#fff" stroke-width="5"/><line x1="-41.834511" y1="55.154222" x2="41.834511" y2="-55.154222" transform="translate(1780.16951 129.577251)" fill="none" stroke="#fff" stroke-width="5"/><line x1="-77.746023" y1="37.458694" x2="77.746023" y2="-37.458694" transform="translate(1816.081022 147.272779)" fill="none" stroke="#fff" stroke-width="5"/><line x1="-120.24077" y1="-30.708974" x2="120.24077" y2="30.708974" transform="translate(1858.575769 215.440447)" fill="none" stroke="#fff" stroke-width="5"/><line x1="35.911513" y1="17.695528" x2="-35.911513" y2="-17.695528" transform="translate(1857.915533 92.118558)" fill="none" stroke="#fff" stroke-width="2"/><line x1="68.90317" y1="67.944849" x2="-68.903169" y2="-67.944848" transform="translate(1351.322137 110.341916)" fill="none" stroke="#fff" stroke-width="5"/><line x1="-125.880848" y1="14.660731" x2="125.880848" y2="-14.660731" transform="translate(1408.299816 27.736336)" fill="none" stroke="#fff" stroke-width="2"/><line x1="-90.16715" y1="-12.773814" x2="90.16715" y2="12.773815" transform="translate(1624.347813 25.849419)" fill="none" stroke="#fff" stroke-width="2"/><line x1="56.977678" y1="-82.467378" x2="-56.977678" y2="82.467379" transform="translate(1477.202985 95.542982)" fill="none" stroke="#fff" stroke-width="5"/><line x1="-147.144828" y1="69.628676" x2="147.144829" y2="-69.628676" transform="translate(1567.370135 108.658088)" fill="none" stroke="#fff" stroke-width="8"/><line x1="-93.25219" y1="-3.027645" x2="93.25219" y2="3.027645" transform="translate(1831.587189 187.759118)" fill="none" stroke="#fff" stroke-width="5"/><line x1="-129.150788" y1="12.242893" x2="129.150788" y2="-12.242893" transform="translate(1849.665751 258.392315)" fill="none" stroke="#fff" stroke-width="2"/><line x1="8.910018" y1="-42.951867" x2="-8.910018" y2="42.951867" transform="translate(1729.424981 227.68334)" fill="none" stroke="#fff" stroke-width="5"/><line x1="-159.090298" y1="-3.222355" x2="159.090298" y2="3.222355" transform="translate(1579.244701 181.509118)" fill="none" stroke="#fff" stroke-width="8"/><ellipse rx="31.607963" ry="31.607963" transform="translate(1714.064201 39.029412)" fill="#01b0d3" stroke-width="0"/><ellipse rx="31.065934" ry="31.065934" transform="matrix(.40237 0 0 0.40237 1738.334999 184.731473)" fill="#01b0d3" stroke-width="0"/><ellipse rx="31.065934" ry="31.065934" transform="matrix(.40237 0 0 0.40237 1534.180663 13.075603)" fill="#01b0d3" stroke-width="0"/><ellipse rx="31.065934" ry="31.065934" transform="matrix(.40237 0 0 0.40237 1282.418968 42.397067)" fill="#01b0d3" stroke-width="0"/><ellipse rx="31.065934" ry="31.065934" transform="matrix(.40237 0 0 0.40237 1924.839379 190.786763)" fill="#01b0d3" stroke-width="0"/><ellipse rx="31.065934" ry="31.065934" transform="matrix(.40237 0 0 0.40237 1978.816539 246.149421)" fill="#01b0d3" stroke-width="0"/><ellipse rx="14.911648" ry="14.911648" transform="matrix(.40237 0 0 0.40237 1720.514963 270.635208)" fill="#01b0d3" stroke-width="0"/><ellipse rx="14.911648" ry="14.911648" transform="matrix(.40237 0 0 0.40237 1822.004021 74.42303)" fill="#01b0d3" stroke-width="0"/><ellipse rx="14.911648" ry="14.911648" transform="matrix(.40237 0 0 0.40237 1893.827046 109.814086)" fill="#01b0d3" stroke-width="0"/></g></g><g id="eWDVvMICpyK173_tr" transform="translate(1645.409039,436.300212) rotate(0)"><g transform="translate(-1495.155275,-367.003589)"><line x1="66.199981" y1="-54.757935" x2="-66.199981" y2="54.757935" transform="translate(1442.253321 483.331659)" fill="none" stroke="#fff" stroke-width="2"/><line x1="-6.649013" y1="-31.402839" x2="6.649013" y2="31.40284" transform="translate(1501.804289 397.741797)" fill="none" stroke="#fff" stroke-width="2"/><line x1="-45.389562" y1="39.607106" x2="45.389562" y2="-39.607106" transform="translate(1449.765714 405.946064)" fill="none" stroke="#fff" stroke-width="2"/><line x1="14.161406" y1="-46.268212" x2="-14.161406" y2="46.268212" transform="translate(1390.214746 491.821382)" fill="none" stroke="#fff" stroke-width="2"/><line x1="59.550968" y1="-85.875318" x2="-59.550968" y2="85.875318" transform="translate(1435.604308 452.214276)" fill="none" stroke="#fff" stroke-width="2"/><ellipse rx="31.065934" ry="31.065934" transform="matrix(.40237 0 0 0.40237 1508.453302 428.573724)" fill="#01b0d3" stroke-width="0"/><ellipse rx="31.065934" ry="31.065934" transform="matrix(.40237 0 0 0.40237 1376.05334 538.155171)" fill="#01b0d3" stroke-width="0"/><ellipse rx="14.911648" ry="14.911648" transform="matrix(.40237 0 0 0.40237 1404.376152 445.553171)" fill="#01b0d3" stroke-width="0"/></g></g><line x1="66.360295" y1="-34.567456" x2="-66.360295" y2="34.567456" transform="translate(1163.427887 642.019243)" fill="none" stroke="#fff" stroke-width="2"/><line x1="-58.161245" y1="-57.775487" x2="58.161245" y2="57.775487" transform="translate(1038.906348 618.893485)" fill="none" stroke="#fff" stroke-width="5"/><line x1="53.912251" y1="-85.709158" x2="-53.912251" y2="85.709159" transform="translate(1283.700433 521.677052)" fill="none" stroke="#fff" stroke-width="5"/><line x1="-116.397742" y1="0.332319" x2="116.397742" y2="-0.332319" transform="translate(1454.010425 435.967893)" fill="none" stroke="#fff" stroke-width="5"/><line x1="-43.51699" y1="-40.437984" x2="43.51699" y2="40.437984" transform="translate(1381.129673 476.605479)" fill="none" stroke="#fff" stroke-width="5"/><line x1="72.916204" y1="-40.371626" x2="-72.916204" y2="40.371626" transform="translate(1497.562867 476.671838)" fill="none" stroke="#fff" stroke-width="2"/><line x1="31.488818" y1="-60.677687" x2="-31.488818" y2="60.677687" transform="translate(895.931711 334.627786)" fill="none" stroke="#fff" stroke-width="2"/><line x1="-44.464961" y1="-26.683434" x2="44.46496" y2="26.683434" transform="translate(840.348091 182.259635)" fill="none" stroke="#fff" stroke-width="2"/><line x1="-44.46496" y1="20.828176" x2="44.464961" y2="-20.828176" transform="translate(840.34809 134.748025)" fill="none" stroke="#fff" stroke-width="2"/><line x1="0.071498" y1="-47.511611" x2="-0.071498" y2="47.511611" transform="translate(884.741552 161.431459)" fill="none" stroke="#fff" stroke-width="2"/><line x1="57.309716" y1="8.191086" x2="-57.309716" y2="-8.191086" transform="translate(942.122766 122.110934)" fill="none" stroke="#fff" stroke-width="2"/><line x1="-57.381214" y1="39.320525" x2="57.381214" y2="-39.320525" transform="translate(942.051268 169.622545)" fill="none" stroke="#fff" stroke-width="2"/><line x1="-21.375238" y1="-32.503514" x2="21.375238" y2="32.503514" transform="translate(906.045292 241.446584)" fill="none" stroke="#fff" stroke-width="2"/><line x1="97.719836" y1="22.971861" x2="-97.719835" y2="-22.97186" transform="translate(1025.140365 296.921959)" fill="none" stroke="#fff" stroke-width="5"/><line x1="-61.713859" y1="-94.7959" x2="61.713859" y2="94.795899" transform="translate(1061.146341 225.09792)" fill="none" stroke="#fff" stroke-width="5"/><line x1="-50.132743" y1="-2.429071" x2="50.132743" y2="2.429071" transform="translate(1049.565225 132.731091)" fill="none" stroke="#fff" stroke-width="2"/><line x1="-11.581116" y1="-92.366829" x2="11.581116" y2="92.366829" transform="translate(1111.279085 227.52699)" fill="none" stroke="#fff" stroke-width="5"/><line x1="-40.498483" y1="75.758223" x2="40.498483" y2="-75.758223" transform="translate(1163.358683 244.135597)" fill="none" stroke="#fff" stroke-width="5"/><line x1="-183.310953" y1="-39.603003" x2="183.310953" y2="39.603003" transform="translate(1387.168118 207.980377)" fill="none" stroke="#fff" stroke-width="5"/><line x1="13.287087" y1="-37.089938" x2="-13.287087" y2="37.089938" transform="translate(1718.825087 392.937352)" fill="none" stroke="#fff" stroke-width="2"/><line x1="-80.852004" y1="-54.270218" x2="80.852003" y2="54.270219" transform="translate(1651.260171 301.577195)" fill="none" stroke="#fff" stroke-width="5"/><line x1="37.863998" y1="-0.332319" x2="-37.863998" y2="0.332319" transform="translate(1608.343068 435.967893)" fill="none" stroke="#fff" stroke-width="2"/><line x1="-29.665467" y1="2.804142" x2="29.665467" y2="-2.804142" transform="translate(1675.872533 432.831432)" fill="none" stroke="#fff" stroke-width="2"/><line x1="-37.899449" y1="-94.164299" x2="37.899449" y2="94.164299" transform="translate(1608.307617 341.471275)" fill="none" stroke="#fff" stroke-width="5"/><line x1="-116.433193" y1="94.026097" x2="116.433193" y2="-94.026097" transform="translate(1454.045876 341.609477)" fill="none" stroke="#fff" stroke-width="8"/><line x1="-107.376241" y1="-58.066735" x2="107.376241" y2="58.066734" transform="translate(1230.236442 377.960555)" fill="none" stroke="#fff" stroke-width="5"/><line x1="-71.057549" y1="120.344238" x2="71.057549" y2="-120.344237" transform="translate(1051.802652 440.238057)" fill="none" stroke="#fff" stroke-width="8"/><line x1="-178.43379" y1="62.141041" x2="178.43379" y2="-62.141041" transform="translate(1159.178893 498.441253)" fill="none" stroke="#fff" stroke-width="8"/><ellipse rx="31.607963" ry="31.607963" transform="translate(1122.8602 319.893819)" fill="#01b0d3" stroke-width="0"/><ellipse rx="31.607963" ry="31.607963" transform="translate(1570.479069 247.306976)" fill="#01b0d3" stroke-width="0"/><ellipse rx="31.607963" ry="31.607963" transform="translate(980.745103 560.582294)" fill="#01b0d3" stroke-width="0"/><ellipse rx="31.065934" ry="31.065934" transform="matrix(.40237 0 0 0.40237 1203.857165 168.377374)" fill="#01b0d3" stroke-width="0"/><ellipse rx="31.065934" ry="31.065934" transform="matrix(.40237 0 0 0.40237 999.432482 130.30202)" fill="#01b0d3" stroke-width="0"/><ellipse rx="31.065934" ry="31.065934" transform="matrix(.40237 0 0 0.40237 927.420529 273.950098)" fill="#01b0d3" stroke-width="0"/><ellipse rx="31.065934" ry="31.065934" transform="matrix(.40237 0 0 0.40237 795.883129 155.576201)" fill="#01b0d3" stroke-width="0"/><ellipse rx="31.065934" ry="31.065934" transform="matrix(.40237 0 0 0.40237 1337.612683 436.300212)" fill="#01b0d3" stroke-width="0"/><ellipse rx="31.065934" ry="31.065934" transform="matrix(.40237 0 0 0.40237 1229.788182 607.38621)" fill="#01b0d3" stroke-width="0"/><ellipse rx="31.065934" ry="31.065934" transform="matrix(.40237 0 0 0.40237 1732.112174 355.847413)" fill="#01b0d3" stroke-width="0"/><ellipse rx="31.065934" ry="31.065934" transform="matrix(.40237 0 0 0.40237 1645.409039 435.635574)" fill="#01b0d3" stroke-width="0"/><ellipse rx="31.065934" ry="31.065934" transform="matrix(.40237 0 0 0.40237 1570.408167 436.167495)" fill="#01b0d3" stroke-width="0"/><ellipse rx="14.911648" ry="14.911648" transform="matrix(.40237 0 0 0.40237 1705.538001 430.02729)" fill="#01b0d3" stroke-width="0"/><ellipse rx="14.911648" ry="14.911648" transform="matrix(.40237 0 0 0.40237 1424.646664 517.043464)" fill="#01b0d3" stroke-width="0"/><ellipse rx="14.911648" ry="14.911648" transform="matrix(.40237 0 0 0.40237 1097.067593 676.668972)" fill="#01b0d3" stroke-width="0"/><ellipse rx="14.911648" ry="14.911648" transform="matrix(.40237 0 0 0.40237 864.442893 395.305472)" fill="#01b0d3" stroke-width="0"/><ellipse rx="14.911648" ry="14.911648" transform="matrix(.40237 0 0 0.40237 1099.697969 135.160161)" fill="#01b0d3" stroke-width="0"/><ellipse rx="14.911648" ry="14.911648" transform="matrix(.40237 0 0 0.40237 884.81305 113.919849)" fill="#01b0d3" stroke-width="0"/><ellipse rx="14.911648" ry="14.911648" transform="matrix(.40237 0 0 0.40237 884.670055 208.94307)" fill="#01b0d3" stroke-width="0"/></svg>