<svg width="2138" height="2139" xmlns="http://www.w3.org/2000/svg" xmlns:xlink="http://www.w3.org/1999/xlink" xml:space="preserve" overflow="hidden"><defs><clipPath id="clip0"><rect x="2070" y="7" width="2138" height="2139"/></clipPath></defs><g clip-path="url(#clip0)" transform="translate(-2070 -7)"><path d="M2176 1076.5C2176 544.926 2606.93 114 3138.5 114 3670.07 114 4101 544.926 4101 1076.5 4101 1608.07 3670.07 2039 3138.5 2039 2606.93 2039 2176 1608.07 2176 1076.5Z" fill="#B8F2FE" fill-rule="evenodd"/><path d="M3209.08 231C3652.59 243.353 3641.07 611.802 3587.46 724.983L3581.51 731.702 3621.43 779.201C3659.07 829.005 3683.49 884.931 3637.65 940.213 3618.17 940.404 3603.08 928.183 3564.31 925.318 3528.98 921.308 3529.55 938.876 3425.66 916.152 3247.32 839.889 3242.22 780.745 3081.76 701.901L3048.83 686.481 3043.02 685.926 3234.29 821.055C3351.55 915.006 3380.58 988.333 3500.14 982.605 3536.43 983.369 3556.67 993.298 3584.94 998.645L3552.86 941.358C3591.05 955.489 3579.98 982.223 3633.07 1011.25 3636.2 1048.62 3614.94 1106.84 3562.38 1129.21L3540.01 1134.69 3553.18 1153.87C3646.64 1295.15 3747.22 1510.89 3585.4 1668.03 3536.3 1659.6 3558.62 1333.74 3404.48 1170.52L3403.23 1169.38 3349.98 1283.2C3248.26 1508.99 3187.69 1695.71 3154.28 1955.25L3144.53 2047 3038.34 2018.04 2832.07 1966.49 2660.18 1911.49 2526.11 1801.5 2500.16 1783.5 2498.42 1764.55C2489.83 1608.1 2504.31 1447.82 2544.61 1261.52L2550.52 1236.07 2537.95 1228.78C2381.09 1142.56 2427.68 1244.24 2330.13 1240.6 2325.53 1122.88 2440 1017.05 2556.73 990.623L2593.83 985.892 2629.82 886.363C2672.5 785.824 2834.36 288.573 3209.08 231Z" fill="#01B0D3" fill-rule="evenodd"/><path d="M2620.27 1644C2433.54 1415.34 2671.41 1071.96 2730.73 986 2768 1033.56 2796.55 1071.85 2797 1131.45 2666.18 1293.95 2661.82 1635 2620.27 1644Z" fill="#0188A3" fill-rule="evenodd"/><path d="M2908.8 606.376C2911.45 598.253 2932.36 597.783 2955.51 605.326 2978.66 612.869 2995.28 625.569 2992.63 633.692 2989.98 641.814 2969.07 642.284 2945.92 634.742 2922.78 627.199 2906.16 614.499 2908.8 606.376Z" fill="#333F50" fill-rule="evenodd"/><path d="M3035.17 1304.51 2986 1118.74C3000.87 1103.45 3215.85 1107.65 3233 1121.03L3188.4 1305.66C3152.19 1319.04 3070.24 1317.51 3035.17 1304.51Z" fill="#C55A11" fill-rule="evenodd"/><path d="M213.528 5.58972C178.705-1.28023 124.367-2.42522 74.62 5.58972L0 449.846 138.908 609 287 449.846 213.528 5.58972Z" fill="#C55A11" fill-rule="evenodd" transform="matrix(-1 0 0 1 3255 1329)"/><path d="M3139 181.558C2644.97 181.558 2244.48 582.237 2244.48 1076.5 2244.48 1570.76 2644.97 1971.44 3139 1971.44 3633.03 1971.44 4033.52 1570.76 4033.52 1076.5 4033.52 582.237 3633.03 181.558 3139 181.558ZM3139 6.99987C3729.39 6.99987 4208 485.831 4208 1076.5 4208 1667.17 3729.39 2146 3139 2146 2548.61 2146 2070 1667.17 2070 1076.5 2070 485.831 2548.61 6.99987 3139 6.99987Z" fill="#333F50" fill-rule="evenodd"/></g></svg>