<svg width="1992" height="1172" xmlns="http://www.w3.org/2000/svg" xmlns:xlink="http://www.w3.org/1999/xlink" overflow="hidden"><defs><clipPath id="clip0"><rect x="1095" y="574" width="1992" height="1172"/></clipPath></defs><g clip-path="url(#clip0)" transform="translate(-1095 -574)"><path d="M2777 613.5C2777 596.103 2791.1 582 2808.5 582 2825.9 582 2840 596.103 2840 613.5 2840 630.897 2825.9 645 2808.5 645 2791.1 645 2777 630.897 2777 613.5Z" fill="#8FAADC" fill-rule="evenodd"/><path d="M2484 751.5C2484 734.103 2498.1 720 2515.5 720 2532.9 720 2547 734.103 2547 751.5 2547 768.897 2532.9 783 2515.5 783 2498.1 783 2484 768.897 2484 751.5Z" fill="#8FAADC" fill-rule="evenodd"/><path d="M2036 824.5C2036 807.103 2050.1 793 2067.5 793 2084.9 793 2099 807.103 2099 824.5 2099 841.897 2084.9 856 2067.5 856 2050.1 856 2036 841.897 2036 824.5Z" fill="#8FAADC" fill-rule="evenodd"/><path d="M1412 1340.5C1412 1323.1 1426.1 1309 1443.5 1309 1460.9 1309 1475 1323.1 1475 1340.5 1475 1357.9 1460.9 1372 1443.5 1372 1426.1 1372 1412 1357.9 1412 1340.5Z" fill="#8FAADC" fill-rule="evenodd"/><path d="M1872 1237.5C1872 1220.1 1886.1 1206 1903.5 1206 1920.9 1206 1935 1220.1 1935 1237.5 1935 1254.9 1920.9 1269 1903.5 1269 1886.1 1269 1872 1254.9 1872 1237.5Z" fill="#8FAADC" fill-rule="evenodd"/><path d="M3006 765C3006 757.82 3011.82 752 3019 752 3026.18 752 3032 757.82 3032 765 3032 772.18 3026.18 778 3019 778 3011.82 778 3006 772.18 3006 765Z" fill="#8FAADC" fill-rule="evenodd"/><path d="M3061 820C3061 812.82 3066.82 807 3074 807 3081.18 807 3087 812.82 3087 820 3087 827.18 3081.18 833 3074 833 3066.82 833 3061 827.18 3061 820Z" fill="#8FAADC" fill-rule="evenodd"/><path d="M2820 758C2820 750.82 2825.82 745 2833 745 2840.18 745 2846 750.82 2846 758 2846 765.18 2840.18 771 2833 771 2825.82 771 2820 765.18 2820 758Z" fill="#8FAADC" fill-rule="evenodd"/><path d="M2665 860C2665 852.82 2670.82 847 2678 847 2685.18 847 2691 852.82 2691 860 2691 867.18 2685.18 873 2678 873 2670.82 873 2665 867.18 2665 860Z" fill="#8FAADC" fill-rule="evenodd"/><path d="M2502 941C2502 933.82 2507.82 928 2515 928 2522.18 928 2528 933.82 2528 941 2528 948.18 2522.18 954 2515 954 2507.82 954 2502 948.18 2502 941Z" fill="#8FAADC" fill-rule="evenodd"/><path d="M2590 1003C2590 995.82 2595.82 990 2603 990 2610.18 990 2616 995.82 2616 1003 2616 1010.18 2610.18 1016 2603 1016 2595.82 1016 2590 1010.18 2590 1003Z" fill="#8FAADC" fill-rule="evenodd"/><path d="M2458 1112C2458 1104.82 2463.82 1099 2471 1099 2478.18 1099 2484 1104.82 2484 1112 2484 1119.18 2478.18 1125 2471 1125 2463.82 1125 2458 1119.18 2458 1112Z" fill="#8FAADC" fill-rule="evenodd"/><path d="M2577 941C2577 933.82 2582.82 928 2590 928 2597.18 928 2603 933.82 2603 941 2603 948.18 2597.18 954 2590 954 2582.82 954 2577 948.18 2577 941Z" fill="#8FAADC" fill-rule="evenodd"/><path d="M2364 616C2364 608.82 2369.82 603 2377 603 2384.18 603 2390 608.82 2390 616 2390 623.18 2384.18 629 2377 629 2369.82 629 2364 623.18 2364 616Z" fill="#8FAADC" fill-rule="evenodd"/><path d="M2135 673C2135 665.82 2140.82 660 2148 660 2155.18 660 2161 665.82 2161 673 2161 680.18 2155.18 686 2148 686 2140.82 686 2135 680.18 2135 673Z" fill="#8FAADC" fill-rule="evenodd"/><path d="M1728 660.5C1728 653.596 1733.82 648 1741 648 1748.18 648 1754 653.596 1754 660.5 1754 667.404 1748.18 673 1741 673 1733.82 673 1728 667.404 1728 660.5Z" fill="#8FAADC" fill-rule="evenodd"/><path d="M1859 778C1859 770.82 1864.82 765 1872 765 1879.18 765 1885 770.82 1885 778 1885 785.18 1879.18 791 1872 791 1864.82 791 1859 785.18 1859 778Z" fill="#8FAADC" fill-rule="evenodd"/><path d="M1931 635C1931 627.82 1936.82 622 1944 622 1951.18 622 1957 627.82 1957 635 1957 642.18 1951.18 648 1944 648 1936.82 648 1931 642.18 1931 635Z" fill="#8FAADC" fill-rule="evenodd"/><path d="M2161 1112C2161 1104.82 2166.82 1099 2174 1099 2181.18 1099 2187 1104.82 2187 1112 2187 1119.18 2181.18 1125 2174 1125 2166.82 1125 2161 1119.18 2161 1112Z" fill="#8FAADC" fill-rule="evenodd"/><path d="M2269 941C2269 933.82 2274.82 928 2282 928 2289.18 928 2295 933.82 2295 941 2295 948.18 2289.18 954 2282 954 2274.82 954 2269 948.18 2269 941Z" fill="#8FAADC" fill-rule="evenodd"/><path d="M1702 1029C1702 1021.82 1707.82 1016 1715 1016 1722.18 1016 1728 1021.82 1728 1029 1728 1036.18 1722.18 1042 1715 1042 1707.82 1042 1702 1036.18 1702 1029Z" fill="#8FAADC" fill-rule="evenodd"/><path d="M1676 1388C1676 1380.82 1681.82 1375 1689 1375 1696.18 1375 1702 1380.82 1702 1388 1702 1395.18 1696.18 1401 1689 1401 1681.82 1401 1676 1395.18 1676 1388Z" fill="#8FAADC" fill-rule="evenodd"/><path d="M1904 1062.5C1904 1051.73 1912.51 1043 1923 1043 1933.49 1043 1942 1051.73 1942 1062.5 1942 1073.27 1933.49 1082 1923 1082 1912.51 1082 1904 1073.27 1904 1062.5Z" fill="#8FAADC" fill-rule="evenodd"/><path d="M1361 1533C1361 1525.82 1366.82 1520 1374 1520 1381.18 1520 1387 1525.82 1387 1533 1387 1540.18 1381.18 1546 1374 1546 1366.82 1546 1361 1540.18 1361 1533Z" fill="#8FAADC" fill-rule="evenodd"/><path d="M1301 1478C1301 1470.82 1306.82 1465 1314 1465 1321.18 1465 1327 1470.82 1327 1478 1327 1485.18 1321.18 1491 1314 1491 1306.82 1491 1301 1485.18 1301 1478Z" fill="#8FAADC" fill-rule="evenodd"/><path d="M1095 1733C1095 1725.82 1100.82 1720 1108 1720 1115.18 1720 1121 1725.82 1121 1733 1121 1740.18 1115.18 1746 1108 1746 1100.82 1746 1095 1740.18 1095 1733Z" fill="#8FAADC" fill-rule="evenodd"/><path d="M0 0 202.277 158.096" stroke="#A6A6A6" stroke-width="6.875" stroke-miterlimit="8" fill="none" fill-rule="evenodd" transform="matrix(-1 0 0 1 2493.78 774.5)"/><path d="M0 0 248.535 93.1496" stroke="#A6A6A6" stroke-width="6.875" stroke-miterlimit="8" fill="none" fill-rule="evenodd" transform="matrix(-1 0 0 1 2787.04 636.5)"/><path d="M2089.5 846.5 2272.61 932.085" stroke="#A6A6A6" stroke-width="6.875" stroke-miterlimit="8" fill="none" fill-rule="evenodd"/><path d="M0 0 108.138 202.365" stroke="#A6A6A6" stroke-width="6.875" stroke-miterlimit="8" fill="none" fill-rule="evenodd" transform="matrix(-1 0 0 1 2045.64 846.5)"/><path d="M0 0 19.4882 124.081" stroke="#A6A6A6" stroke-width="6.875" stroke-miterlimit="8" fill="none" fill-rule="evenodd" transform="matrix(-1 0 0 1 1923.99 1082.5)"/><path d="M0 0 397.039 103.181" stroke="#A6A6A6" stroke-width="6.875" stroke-miterlimit="8" fill="none" fill-rule="evenodd" transform="matrix(1 0 0 -1 1475.5 1341.68)"/><path d="M0 0 60.0933 151.895" stroke="#A6A6A6" stroke-width="6.875" stroke-miterlimit="8" fill="none" fill-rule="evenodd" transform="matrix(-1 0 0 1 1443.59 1372.5)"/><path d="M2669.33 851.929 2538.5 774.5" stroke="#A6A6A6" stroke-width="6.875" stroke-miterlimit="8" fill="none" fill-rule="evenodd"/><path d="M2492.94 729.064 2386 625" stroke="#A6A6A6" stroke-width="2.29167" stroke-miterlimit="8" fill="none" fill-rule="evenodd"/><path d="M2515.5 783.5 2580.43 932.375" stroke="#A6A6A6" stroke-width="6.875" stroke-miterlimit="8" fill="none" fill-rule="evenodd"/><path d="M0 0 109.403 148.321" stroke="#A6A6A6" stroke-width="4.58333" stroke-miterlimit="8" fill="none" fill-rule="evenodd" transform="matrix(-1 0 0 1 2589.9 954.5)"/><path d="M2590.5 954.5 2594.31 994.654" stroke="#A6A6A6" stroke-width="4.58333" stroke-miterlimit="8" fill="none" fill-rule="evenodd"/><path d="M2528.5 941.5 2576.63 941.5" stroke="#A6A6A6" stroke-width="4.58333" stroke-miterlimit="8" fill="none" fill-rule="evenodd"/><path d="M0 0 89.4753 152.126" stroke="#A6A6A6" stroke-width="4.58333" stroke-miterlimit="8" fill="none" fill-rule="evenodd" transform="matrix(-1 0 0 1 2272.98 950.5)"/><path d="M2809.5 645.5 2834.03 745.449" stroke="#A6A6A6" stroke-width="4.58333" stroke-miterlimit="8" fill="none" fill-rule="evenodd"/><path d="M3065.47 810.553 2846.5 758.5" stroke="#A6A6A6" stroke-width="4.58333" stroke-miterlimit="8" fill="none" fill-rule="evenodd"/><path d="M3010.47 773.927 2846.5 758.5" stroke="#A6A6A6" stroke-width="4.58333" stroke-miterlimit="8" fill="none" fill-rule="evenodd"/><path d="M0 0 58.4595 115.305" stroke="#A6A6A6" stroke-width="4.58333" stroke-miterlimit="8" fill="none" fill-rule="evenodd" transform="matrix(-1 0 0 1 2147.96 686.5)"/><path d="M1954.5 645.5 2045.83 802.69" stroke="#A6A6A6" stroke-width="4.58333" stroke-miterlimit="8" fill="none" fill-rule="evenodd"/><path d="M2035.98 824.84 1881.5 787.5" stroke="#A6A6A6" stroke-width="4.58333" stroke-miterlimit="8" fill="none" fill-rule="evenodd"/><path d="M1750 670 1822.63 713.603" stroke="#A6A6A6" stroke-width="2.29167" stroke-miterlimit="8" fill="none" fill-rule="evenodd"/><path d="M1904.11 1062.56 1728.5 1029.5" stroke="#A6A6A6" stroke-width="4.58333" stroke-miterlimit="8" fill="none" fill-rule="evenodd"/><path d="M0 0 326.251 121.374" stroke="#A6A6A6" stroke-width="4.58333" stroke-miterlimit="8" fill="none" fill-rule="evenodd" transform="matrix(-1 0 0 1 2268.75 941.5)"/><path d="M0 0 183.135 118.934" stroke="#A6A6A6" stroke-width="4.58333" stroke-miterlimit="8" fill="none" fill-rule="evenodd" transform="matrix(-1 0 0 1 1881.63 1260.5)"/><path d="M1365.63 1524.13 1323.5 1487.5" stroke="#A6A6A6" stroke-width="4.58333" stroke-miterlimit="8" fill="none" fill-rule="evenodd"/><path d="M0 0 110.738 139.024" stroke="#A6A6A6" stroke-width="2.29167" stroke-miterlimit="8" fill="none" fill-rule="evenodd" transform="matrix(-1 0 0 1 1228.74 1585)"/><path d="M2493 1019.5C2493 1015.91 2495.91 1013 2499.5 1013 2503.09 1013 2506 1015.91 2506 1019.5 2506 1023.09 2503.09 1026 2499.5 1026 2495.91 1026 2493 1023.09 2493 1019.5Z" fill="#8FAADC" fill-rule="evenodd"/><path d="M2911 647.5C2911 643.91 2913.91 641 2917.5 641 2921.09 641 2924 643.91 2924 647.5 2924 651.09 2921.09 654 2917.5 654 2913.91 654 2911 651.09 2911 647.5Z" fill="#8FAADC" fill-rule="evenodd"/><path d="M2981 683.5C2981 679.91 2983.91 677 2987.5 677 2991.09 677 2994 679.91 2994 683.5 2994 687.09 2991.09 690 2987.5 690 2983.91 690 2981 687.09 2981 683.5Z" fill="#8FAADC" fill-rule="evenodd"/><path d="M2038 640C2038 636.686 2040.91 634 2044.5 634 2048.09 634 2051 636.686 2051 640 2051 643.314 2048.09 646 2044.5 646 2040.91 646 2038 643.314 2038 640Z" fill="#8FAADC" fill-rule="evenodd"/><path d="M1823 618.5C1823 614.91 1825.91 612 1829.5 612 1833.09 612 1836 614.91 1836 618.5 1836 622.09 1833.09 625 1829.5 625 1825.91 625 1823 622.09 1823 618.5Z" fill="#8FAADC" fill-rule="evenodd"/><path d="M1823 713.5C1823 709.91 1825.91 707 1829.5 707 1833.09 707 1836 709.91 1836 713.5 1836 717.09 1833.09 720 1829.5 720 1825.91 720 1823 717.09 1823 713.5Z" fill="#8FAADC" fill-rule="evenodd"/><path d="M2616 587C2616 579.82 2621.82 574 2629 574 2636.18 574 2642 579.82 2642 587 2642 594.18 2636.18 600 2629 600 2621.82 600 2616 594.18 2616 587Z" fill="#8FAADC" fill-rule="evenodd"/><path d="M2644 934.5C2644 930.91 2646.91 928 2650.5 928 2654.09 928 2657 930.91 2657 934.5 2657 938.09 2654.09 941 2650.5 941 2646.91 941 2644 938.09 2644 934.5Z" fill="#8FAADC" fill-rule="evenodd"/><path d="M2363 1022.5C2363 1018.91 2365.91 1016 2369.5 1016 2373.09 1016 2376 1018.91 2376 1022.5 2376 1026.09 2373.09 1029 2369.5 1029 2365.91 1029 2363 1026.09 2363 1022.5Z" fill="#8FAADC" fill-rule="evenodd"/><path d="M1803 899.5C1803 895.91 1805.91 893 1809.5 893 1813.09 893 1816 895.91 1816 899.5 1816 903.09 1813.09 906 1809.5 906 1805.91 906 1803 903.09 1803 899.5Z" fill="#8FAADC" fill-rule="evenodd"/><path d="M1574 1181.5C1574 1177.91 1576.91 1175 1580.5 1175 1584.09 1175 1587 1177.91 1587 1181.5 1587 1185.09 1584.09 1188 1580.5 1188 1576.91 1188 1574 1185.09 1574 1181.5Z" fill="#8FAADC" fill-rule="evenodd"/><path d="M1531 1478.5C1531 1474.91 1533.91 1472 1537.5 1472 1541.09 1472 1544 1474.91 1544 1478.5 1544 1482.09 1541.09 1485 1537.5 1485 1533.91 1485 1531 1482.09 1531 1478.5Z" fill="#8FAADC" fill-rule="evenodd"/><path d="M2035 1181.5C2035 1177.91 2037.91 1175 2041.5 1175 2045.09 1175 2048 1177.91 2048 1181.5 2048 1185.09 2045.09 1188 2041.5 1188 2037.91 1188 2035 1185.09 2035 1181.5Z" fill="#8FAADC" fill-rule="evenodd"/><path d="M1228 1584.5C1228 1580.91 1230.91 1578 1234.5 1578 1238.09 1578 1241 1580.91 1241 1584.5 1241 1588.09 1238.09 1591 1234.5 1591 1230.91 1591 1228 1588.09 1228 1584.5Z" fill="#8FAADC" fill-rule="evenodd"/><path d="M1276 1533.5C1276 1529.91 1278.91 1527 1282.5 1527 1286.09 1527 1289 1529.91 1289 1533.5 1289 1537.09 1286.09 1540 1282.5 1540 1278.91 1540 1276 1537.09 1276 1533.5Z" fill="#8FAADC" fill-rule="evenodd"/><path d="M1289 1597.5C1289 1593.91 1291.91 1591 1295.5 1591 1299.09 1591 1302 1593.91 1302 1597.5 1302 1601.09 1299.09 1604 1295.5 1604 1291.91 1604 1289 1601.09 1289 1597.5Z" fill="#8FAADC" fill-rule="evenodd"/><path d="M2840 614 2913.02 643.046" stroke="#A6A6A6" stroke-width="2.29167" stroke-miterlimit="8" fill="none" fill-rule="evenodd"/><path d="M2924 648 2983.17 679.641" stroke="#A6A6A6" stroke-width="2.29167" stroke-miterlimit="8" fill="none" fill-rule="evenodd"/><path d="M0 0 70.7851 97.0025" stroke="#A6A6A6" stroke-width="2.29167" stroke-miterlimit="8" fill="none" fill-rule="evenodd" transform="matrix(-1 0 0 1 2912.79 652)"/><path d="M0 0 141.043 60.7681" stroke="#A6A6A6" stroke-width="2.29167" stroke-miterlimit="8" fill="none" fill-rule="evenodd" transform="matrix(1 0 0 -1 2842 748.768)"/><path d="M0 0 81.6461 132.681" stroke="#A6A6A6" stroke-width="6.875" stroke-miterlimit="8" fill="none" fill-rule="evenodd" transform="matrix(-1 0 0 1 2620.15 597.5)"/><path d="M2161 673 2484.09 751.047" stroke="#A6A6A6" stroke-width="2.29167" stroke-miterlimit="8" fill="none" fill-rule="evenodd"/><path d="M2045 646 2067.26 792.066" stroke="#A6A6A6" stroke-width="2.29167" stroke-miterlimit="8" fill="none" fill-rule="evenodd"/><path d="M1836 619 1931.25 635.658" stroke="#A6A6A6" stroke-width="2.29167" stroke-miterlimit="8" fill="none" fill-rule="evenodd"/><path d="M0 0 101.402 64.0963" stroke="#A6A6A6" stroke-width="2.29167" stroke-miterlimit="8" fill="none" fill-rule="evenodd" transform="matrix(1 0 0 -1 1834 709.096)"/><path d="M0 0 282.336 15.5083" stroke="#A6A6A6" stroke-width="2.29167" stroke-miterlimit="8" fill="none" fill-rule="evenodd" transform="matrix(1 0 0 -1 2538 773.508)"/><path d="M2291 950 2365.35 1018.04" stroke="#A6A6A6" stroke-width="2.29167" stroke-miterlimit="8" fill="none" fill-rule="evenodd"/><path d="M0 0 128.009 77.2281" stroke="#A6A6A6" stroke-width="2.29167" stroke-miterlimit="8" fill="none" fill-rule="evenodd" transform="matrix(1 0 0 -1 2374 1018.23)"/><path d="M1937 1076 2037.18 1177.02" stroke="#A6A6A6" stroke-width="2.29167" stroke-miterlimit="8" fill="none" fill-rule="evenodd"/><path d="M1814 904 1909.42 1048.35" stroke="#A6A6A6" stroke-width="2.29167" stroke-miterlimit="8" fill="none" fill-rule="evenodd"/><path d="M1587 1182 1871.8 1234.09" stroke="#A6A6A6" stroke-width="2.29167" stroke-miterlimit="8" fill="none" fill-rule="evenodd"/><path d="M1466 1363 1676.17 1387.94" stroke="#A6A6A6" stroke-width="2.29167" stroke-miterlimit="8" fill="none" fill-rule="evenodd"/><path d="M1466 1363 1537.42 1471.81" stroke="#A6A6A6" stroke-width="2.29167" stroke-miterlimit="8" fill="none" fill-rule="evenodd"/><path d="M1289 1533 1360.96 1533" stroke="#A6A6A6" stroke-width="2.29167" stroke-miterlimit="8" fill="none" fill-rule="evenodd"/><path d="M0 0 130.226 35.9398" stroke="#A6A6A6" stroke-width="4.58333" stroke-miterlimit="8" fill="none" fill-rule="evenodd" transform="matrix(1 0 0 -1 1235.5 1578.44)"/><path d="M1239 1580 1290.61 1592.99" stroke="#A6A6A6" stroke-width="2.29167" stroke-miterlimit="8" fill="none" fill-rule="evenodd"/><path d="M0 0 80.6941 62.381" stroke="#A6A6A6" stroke-width="2.29167" stroke-miterlimit="8" fill="none" fill-rule="evenodd" transform="matrix(1 0 0 -1 2500 1012.38)"/><path d="M0 0 41.6365 6.49606" stroke="#A6A6A6" stroke-width="2.29167" stroke-miterlimit="8" fill="none" fill-rule="evenodd" transform="matrix(1 0 0 -1 2603 941.496)"/><path d="M0 0 53.6369 106.522" stroke="#A6A6A6" stroke-width="2.29167" stroke-miterlimit="8" fill="none" fill-rule="evenodd" transform="matrix(-1 0 0 1 1862.64 787)"/><path d="M0 0 120.4 138.674" stroke="#A6A6A6" stroke-width="2.29167" stroke-miterlimit="8" fill="none" fill-rule="evenodd" transform="matrix(-1 0 0 1 1705.4 1039)"/><path d="M0 0 116.649 61.0854" stroke="#A6A6A6" stroke-width="2.29167" stroke-miterlimit="8" fill="none" fill-rule="evenodd" transform="matrix(-1 0 0 1 2164.65 1121)"/><path d="M0 0 145.375 50.4066" stroke="#A6A6A6" stroke-width="2.29167" stroke-miterlimit="8" fill="none" fill-rule="evenodd" transform="matrix(-1 0 0 1 1532.37 1483)"/><path d="M0 0 173.437 121.438" stroke="#A6A6A6" stroke-width="2.29167" stroke-miterlimit="8" fill="none" fill-rule="evenodd" transform="matrix(-1 0 0 1 1291.44 1602)"/><path d="M0 0 64.8354 50.8346" stroke="#A6A6A6" stroke-width="2.29167" stroke-miterlimit="8" fill="none" fill-rule="evenodd" transform="matrix(-1 0 0 1 1364.84 1542)"/><path d="M0 0 24.1152 74.8505" stroke="#A6A6A6" stroke-width="2.29167" stroke-miterlimit="8" fill="none" fill-rule="evenodd" transform="matrix(1 0 0 -1 2471 1098.85)"/><path d="M0 0 113.208 89.7929" stroke="#A6A6A6" stroke-width="2.29167" stroke-miterlimit="8" fill="none" fill-rule="evenodd" transform="matrix(1 0 0 -1 2480 1102.79)"/><path d="M0 0 225.5 28.617" stroke="#A6A6A6" stroke-width="2.29167" stroke-miterlimit="8" fill="none" fill-rule="evenodd" transform="matrix(1 0 0 -1 2390 615.617)"/><path d="M2038.03 639.593 1957 635" stroke="#A6A6A6" stroke-width="2.29167" stroke-miterlimit="8" fill="none" fill-rule="evenodd"/><path d="M0 0 110.368 131.978" stroke="#A6A6A6" stroke-width="2.29167" stroke-miterlimit="8" fill="none" fill-rule="evenodd" transform="matrix(-1 0 0 1 1576.37 1186)"/><path d="M2642 587 2777.49 613.459" stroke="#A6A6A6" stroke-width="2.29167" stroke-miterlimit="8" fill="none" fill-rule="evenodd"/><path d="M2809 844.5C2809 840.91 2811.91 838 2815.5 838 2819.09 838 2822 840.91 2822 844.5 2822 848.09 2819.09 851 2815.5 851 2811.91 851 2809 848.09 2809 844.5Z" fill="#8FAADC" fill-rule="evenodd"/><path d="M0 0 18.0367 66.9531" stroke="#A6A6A6" stroke-width="2.29167" stroke-miterlimit="8" fill="none" fill-rule="evenodd" transform="matrix(-1 0 0 1 2833.04 771)"/><path d="M0 0 73.0749 32.5579" stroke="#A6A6A6" stroke-width="2.29167" stroke-miterlimit="8" fill="none" fill-rule="evenodd" transform="matrix(-1 0 0 1 1823.07 619)"/><path d="M0 0 0.44065 81.5426" stroke="#A6A6A6" stroke-width="2.29167" stroke-miterlimit="8" fill="none" fill-rule="evenodd" transform="matrix(-1 0 0 1 1829.44 625)"/><path d="M1829 720 1862.63 768.55" stroke="#A6A6A6" stroke-width="2.29167" stroke-miterlimit="8" fill="none" fill-rule="evenodd"/></g></svg>