<svg width="1089" height="1714" xmlns="http://www.w3.org/2000/svg" xmlns:xlink="http://www.w3.org/1999/xlink" overflow="hidden"><defs><clipPath id="clip0"><rect x="1605" y="734" width="1089" height="1714"/></clipPath></defs><g clip-path="url(#clip0)" transform="translate(-1605 -734)"><path d="M2274.25 734 2283.04 734.499C2711.34 771.854 2682.89 1178.8 2603.9 1242.64 2442.55 1280.27 2042.99 1151.05 2027.05 1196.23 2011.1 1241.4 2254.28 1406.63 2508.24 1513.69L2362.74 1724C2153.57 1609.12 1859.17 1530.01 1661 1387.62 1701.01 1293.34 1845.74 850.278 2172.37 747.81L2207.35 739.682 2232.25 742.488C2242.1 742.488 2251.48 741.374 2260.01 739.36Z" fill="#333F50" fill-rule="evenodd"/><path d="M2079 1187C2273.77 1273.95 2266.9 1335.74 2457.09 1416.97 2560.97 1439.66 2560.4 1422.12 2595.72 1426.12 2634.49 1428.98 2649.57 1441.19 2669.05 1441 2730.15 1367.39 2666.38 1292.64 2612.91 1232.77 2511.7 1202.45 2315.78 1201.87 2079 1187Z" fill="#595959" fill-rule="evenodd"/><path d="M1939.43 1107.94C1942.07 1099.82 1962.99 1099.35 1986.13 1106.89 2009.28 1114.43 2025.9 1127.13 2023.25 1135.26 2020.61 1143.38 1999.7 1143.85 1976.55 1136.31 1953.4 1128.76 1936.78 1116.06 1939.43 1107.94Z" fill="#595959" fill-rule="evenodd"/><path d="M1964.58 1117.12C1965.99 1112.79 1976.89 1112.45 1988.91 1116.37 2000.93 1120.29 2009.54 1126.98 2008.13 1131.31 2006.71 1135.64 1995.82 1135.98 1983.8 1132.06 1971.77 1128.14 1963.17 1121.45 1964.58 1117.12Z" fill="#FFFFFF" fill-rule="evenodd"/><path d="M2223.13 1814.51 2161 1630.49C2175.89 1615.21 2411.82 1617.69 2429 1631.07L2376.6 1815.66C2340.33 1829.04 2258.26 1827.51 2223.13 1814.51Z" fill="#C55A11" fill-rule="evenodd"/><path d="M212.784 5.5989C178.083-1.28233 123.933-2.4292 74.36 5.5989L0 450.585 138.424 610 286 450.585 212.784 5.5989Z" fill="#C55A11" fill-rule="evenodd" transform="matrix(-1 0 0 1 2442 1838)"/><path d="M2183 1625.66C2136.09 1639.36 2078.02 1700.35 2075.78 1788L1605 1502.18C1618.75 1443.13 1642.8 1394.41 1663.42 1356 1697.44 1422.67 1984.89 1569.31 2183 1625.66Z" fill="#C55A11" fill-rule="evenodd"/><path d="M193 26.873C146.124 40.5552 88.0861 101.467 85.854 189L0 140.568C13.7366 81.6023 80.1304 24.9267 119.051 1.45474 146.181-1.8085 134.676-1.92282 193 26.873Z" fill="#C55A11" fill-rule="evenodd" transform="matrix(-1 0 0 1 2592 1603)"/><path d="M2073.68 1186.87 2265.01 1322.24C2382.25 1416.32 2411.27 1489.75 2530.8 1484.01 2567.08 1484.78 2587.32 1494.72 2615.58 1500.07L2583.5 1442.71C2621.69 1456.86 2610.62 1483.63 2663.7 1512.69 2669.05 1576.56 2603.36 1701.23 2432.28 1604.47L2268.45 1488.6 2030.15 1399.11C1899.93 1316.51 1916.35 1264.88 1911 1171.95 1967.52 1164.3 2013.73 1166.98 2073.68 1186.87Z" fill="#595959" fill-rule="evenodd"/></g></svg>