<svg width="329" height="329" xmlns="http://www.w3.org/2000/svg" xmlns:xlink="http://www.w3.org/1999/xlink" xml:space="preserve" overflow="hidden"><defs><clipPath id="clip0"><rect x="161" y="30" width="329" height="329"/></clipPath></defs><g clip-path="url(#clip0)" transform="translate(-161 -30)"><path d="M325.5 30C234.614 30 161 103.614 161 194.5 161 267.291 208.088 328.773 273.477 350.569 281.702 352.009 284.786 347.074 284.786 342.756 284.786 338.849 284.581 325.894 284.581 312.117 243.25 319.726 232.557 302.042 229.268 292.789 227.417 288.059 219.397 273.46 212.406 269.553 206.649 266.469 198.424 258.861 212.201 258.655 225.155 258.449 234.408 270.581 237.492 275.516 252.298 300.397 275.944 293.406 285.403 289.087 286.842 278.395 291.161 271.198 295.89 267.086 259.289 262.973 221.043 248.785 221.043 185.864 221.043 167.974 227.417 153.169 237.904 141.654 236.259 137.542 230.501 120.681 239.549 98.0619 239.549 98.0619 253.326 93.7437 284.786 114.923 297.946 111.222 311.929 109.371 325.911 109.371 339.894 109.371 353.876 111.222 367.036 114.923 398.497 93.5381 412.274 98.0619 412.274 98.0619 421.321 120.681 415.564 137.542 413.919 141.654 424.406 153.169 430.78 167.769 430.78 185.864 430.78 248.991 392.328 262.973 355.727 267.086 361.69 272.226 366.831 282.096 366.831 297.518 366.831 319.52 366.625 337.204 366.625 342.756 366.625 347.074 369.709 352.214 377.934 350.569 444.894 327.965 489.981 265.173 490 194.5 490 103.614 416.386 30 325.5 30Z" fill="#FFFFFF" fill-rule="evenodd"/></g></svg>