<svg width="521" height="521" xmlns="http://www.w3.org/2000/svg" xmlns:xlink="http://www.w3.org/1999/xlink" xml:space="preserve" overflow="hidden"><defs><clipPath id="clip0"><rect x="668" y="54" width="521" height="521"/></clipPath></defs><g clip-path="url(#clip0)" transform="translate(-668 -54)"><path d="M1861.81 181.246 1418.38 181.246C1397.17 181.246 1379.16 198.042 1379.16 218.733L1379.16 664.736C1379.16 685.453 1390.97 702.246 1412.18 702.246L1855.62 702.246C1876.86 702.246 1899.51 685.453 1899.51 664.736L1899.51 218.733C1899.51 198.042 1883.05 181.246 1861.81 181.246ZM1577.38 379.722 1647.43 379.722 1647.43 415.472 1648.2 415.472C1658.88 396.196 1690.42 376.621 1729.43 376.621 1804.28 376.621 1825.17 416.415 1825.17 490.125L1825.17 627.817 1750.83 627.817 1750.83 503.695C1750.83 470.698 1737.68 441.746 1706.91 441.746 1669.54 441.746 1651.72 467.077 1651.72 508.657L1651.72 627.817 1577.38 627.817 1577.38 379.722ZM1453.49 627.817 1527.83 627.817 1527.83 379.722 1453.49 379.722 1453.49 627.817ZM1537.12 292.888C1537.12 318.592 1516.33 339.406 1490.66 339.406 1464.99 339.406 1444.2 318.592 1444.2 292.888 1444.2 267.186 1464.99 246.371 1490.66 246.371 1516.33 246.371 1537.12 267.186 1537.12 292.888Z" fill="#FFFFFF" fill-rule="evenodd" transform="matrix(1.00125 0 0 1 -712.878 -127.246)"/></g></svg>